<mxfile host="app.diagrams.net" modified="2023-11-19T17:16:46.292Z" agent="Mozilla/5.0 (Windows NT 10.0; Win64; x64; rv:109.0) Gecko/20100101 Firefox/119.0" etag="QxnMjr-Su_EQR2uoFWgv" version="22.1.3" type="device">
  <diagram name="Seite-1" id="lC4_b18e9kO-qhdbwTfZ">
    <mxGraphModel dx="1098" dy="614" grid="1" gridSize="10" guides="1" tooltips="1" connect="1" arrows="1" fold="1" page="1" pageScale="1" pageWidth="827" pageHeight="1169" math="0" shadow="0">
      <root>
        <mxCell id="0" />
        <mxCell id="1" parent="0" />
        <mxCell id="co_M-Fp7z7ZcmXPhSosA-2" value="Text" style="text;html=1;strokeColor=none;fillColor=none;align=center;verticalAlign=middle;whiteSpace=wrap;rounded=0;" vertex="1" parent="1">
          <mxGeometry x="320" y="300" width="60" height="30" as="geometry" />
        </mxCell>
        <mxCell id="co_M-Fp7z7ZcmXPhSosA-4" value="" style="group" vertex="1" connectable="0" parent="1">
          <mxGeometry x="140" y="120" width="1040" height="560" as="geometry" />
        </mxCell>
        <mxCell id="co_M-Fp7z7ZcmXPhSosA-5" value="" style="group" vertex="1" connectable="0" parent="co_M-Fp7z7ZcmXPhSosA-4">
          <mxGeometry x="-10" y="10" width="1050" height="550" as="geometry" />
        </mxCell>
        <mxCell id="co_M-Fp7z7ZcmXPhSosA-1" value="" style="rounded=1;whiteSpace=wrap;html=1;" vertex="1" parent="co_M-Fp7z7ZcmXPhSosA-5">
          <mxGeometry width="1050" height="549.9999999999999" as="geometry" />
        </mxCell>
        <mxCell id="co_M-Fp7z7ZcmXPhSosA-3" value="Akt 1: Museeum" style="text;html=1;strokeColor=none;fillColor=none;align=center;verticalAlign=middle;whiteSpace=wrap;rounded=0;" vertex="1" parent="co_M-Fp7z7ZcmXPhSosA-5">
          <mxGeometry x="18.75" y="18.333333333333332" width="112.5" height="55" as="geometry" />
        </mxCell>
        <mxCell id="co_M-Fp7z7ZcmXPhSosA-18" value="" style="endArrow=none;html=1;rounded=0;entryX=0.25;entryY=0;entryDx=0;entryDy=0;exitX=0.25;exitY=1;exitDx=0;exitDy=0;" edge="1" parent="co_M-Fp7z7ZcmXPhSosA-5" source="co_M-Fp7z7ZcmXPhSosA-1" target="co_M-Fp7z7ZcmXPhSosA-1">
          <mxGeometry width="50" height="50" relative="1" as="geometry">
            <mxPoint x="1162.5" y="586.6666666666666" as="sourcePoint" />
            <mxPoint x="1256.25" y="495" as="targetPoint" />
          </mxGeometry>
        </mxCell>
        <mxCell id="co_M-Fp7z7ZcmXPhSosA-21" value="&lt;div align=&quot;left&quot;&gt;&lt;ul&gt;&lt;li&gt;Spieler treffen sich vor dem Museeum&lt;/li&gt;&lt;li&gt;Entdecken, dass die Totenmaske geklaut worden ist&lt;/li&gt;&lt;li&gt;Lena trifft auf die Spieler, diese können sich entscheiden Sie in ihre Gruppe aufzunehmen&lt;br&gt;&lt;/li&gt;&lt;li&gt;&lt;font color=&quot;#7ea6e0&quot;&gt;Müssen der Massenpanik entgehen&lt;/font&gt;&lt;/li&gt;&lt;li&gt;Müssen Higgins aus dem Arkopharg befreien&lt;/li&gt;&lt;li&gt;Können Cornelius Findibaldus finden, wenn sie auf dem Ausstellungsplatz vor dem Museeum suchen&lt;br&gt;&lt;/li&gt;&lt;/ul&gt;&lt;/div&gt;" style="text;html=1;strokeColor=none;fillColor=none;align=left;verticalAlign=middle;whiteSpace=wrap;rounded=0;" vertex="1" parent="co_M-Fp7z7ZcmXPhSosA-5">
          <mxGeometry x="18.75" y="110" width="225" height="403.33333333333326" as="geometry" />
        </mxCell>
        <mxCell id="co_M-Fp7z7ZcmXPhSosA-22" value="Museeums-&lt;br&gt;direktor" style="shape=umlActor;verticalLabelPosition=bottom;verticalAlign=top;html=1;outlineConnect=0;" vertex="1" parent="co_M-Fp7z7ZcmXPhSosA-5">
          <mxGeometry x="330" y="100" width="30" height="62.5" as="geometry" />
        </mxCell>
        <mxCell id="co_M-Fp7z7ZcmXPhSosA-24" value="Professor Leeds" style="shape=umlActor;verticalLabelPosition=bottom;verticalAlign=top;html=1;outlineConnect=0;" vertex="1" parent="co_M-Fp7z7ZcmXPhSosA-5">
          <mxGeometry x="540" y="40" width="30.38" height="60" as="geometry" />
        </mxCell>
        <mxCell id="co_M-Fp7z7ZcmXPhSosA-27" value="Higgins" style="shape=umlActor;verticalLabelPosition=bottom;verticalAlign=top;html=1;outlineConnect=0;" vertex="1" parent="co_M-Fp7z7ZcmXPhSosA-5">
          <mxGeometry x="750" y="100" width="30" height="62.5" as="geometry" />
        </mxCell>
        <mxCell id="co_M-Fp7z7ZcmXPhSosA-30" style="rounded=0;orthogonalLoop=1;jettySize=auto;html=1;entryX=0;entryY=0.3333333333333333;entryDx=0;entryDy=0;entryPerimeter=0;" edge="1" parent="co_M-Fp7z7ZcmXPhSosA-5" source="co_M-Fp7z7ZcmXPhSosA-24" target="co_M-Fp7z7ZcmXPhSosA-27">
          <mxGeometry relative="1" as="geometry" />
        </mxCell>
        <mxCell id="co_M-Fp7z7ZcmXPhSosA-31" value="ist Lehrer von" style="edgeLabel;html=1;align=center;verticalAlign=middle;resizable=0;points=[];" vertex="1" connectable="0" parent="co_M-Fp7z7ZcmXPhSosA-30">
          <mxGeometry x="-0.0485" y="-1" relative="1" as="geometry">
            <mxPoint as="offset" />
          </mxGeometry>
        </mxCell>
        <mxCell id="co_M-Fp7z7ZcmXPhSosA-32" style="rounded=0;orthogonalLoop=1;jettySize=auto;html=1;entryX=0.5;entryY=0.5;entryDx=0;entryDy=0;entryPerimeter=0;startArrow=classic;startFill=1;" edge="1" parent="co_M-Fp7z7ZcmXPhSosA-5" source="co_M-Fp7z7ZcmXPhSosA-22" target="co_M-Fp7z7ZcmXPhSosA-24">
          <mxGeometry relative="1" as="geometry" />
        </mxCell>
        <mxCell id="co_M-Fp7z7ZcmXPhSosA-33" value="lange befreundet" style="edgeLabel;html=1;align=center;verticalAlign=middle;resizable=0;points=[];" vertex="1" connectable="0" parent="co_M-Fp7z7ZcmXPhSosA-32">
          <mxGeometry x="-0.0924" y="-1" relative="1" as="geometry">
            <mxPoint as="offset" />
          </mxGeometry>
        </mxCell>
        <mxCell id="co_M-Fp7z7ZcmXPhSosA-34" value="&lt;div&gt;Hinweis:&lt;/div&gt;&lt;div&gt;Details über den&lt;br&gt;Überfall...&lt;br&gt;&lt;/div&gt;" style="ellipse;shape=cloud;whiteSpace=wrap;html=1;" vertex="1" parent="co_M-Fp7z7ZcmXPhSosA-5">
          <mxGeometry x="890" y="30" width="160" height="121.25" as="geometry" />
        </mxCell>
        <mxCell id="co_M-Fp7z7ZcmXPhSosA-35" style="rounded=0;orthogonalLoop=1;jettySize=auto;html=1;entryX=0.16;entryY=0.55;entryDx=0;entryDy=0;entryPerimeter=0;" edge="1" parent="co_M-Fp7z7ZcmXPhSosA-5" source="co_M-Fp7z7ZcmXPhSosA-27" target="co_M-Fp7z7ZcmXPhSosA-34">
          <mxGeometry relative="1" as="geometry" />
        </mxCell>
        <mxCell id="co_M-Fp7z7ZcmXPhSosA-37" value="beruhigen&lt;br&gt;heilen/Medizin&lt;br&gt;einschüchtern" style="edgeLabel;html=1;align=center;verticalAlign=middle;resizable=0;points=[];" vertex="1" connectable="0" parent="co_M-Fp7z7ZcmXPhSosA-35">
          <mxGeometry x="-0.2553" y="-1" relative="1" as="geometry">
            <mxPoint as="offset" />
          </mxGeometry>
        </mxCell>
        <mxCell id="co_M-Fp7z7ZcmXPhSosA-36" value="&lt;div&gt;Hinweis:&lt;/div&gt;&lt;div&gt;Backett Bande&lt;br&gt;versteckt sich in &lt;br&gt;Kanalisation.&lt;br&gt;&lt;/div&gt;" style="ellipse;shape=cloud;whiteSpace=wrap;html=1;" vertex="1" parent="co_M-Fp7z7ZcmXPhSosA-5">
          <mxGeometry x="550" y="250" width="160" height="118.75" as="geometry" />
        </mxCell>
        <mxCell id="co_M-Fp7z7ZcmXPhSosA-38" value="Officer Brixton" style="shape=umlActor;verticalLabelPosition=bottom;verticalAlign=top;html=1;outlineConnect=0;" vertex="1" parent="co_M-Fp7z7ZcmXPhSosA-5">
          <mxGeometry x="350" y="210" width="30" height="60" as="geometry" />
        </mxCell>
        <mxCell id="co_M-Fp7z7ZcmXPhSosA-39" style="rounded=0;orthogonalLoop=1;jettySize=auto;html=1;entryX=0.07;entryY=0.4;entryDx=0;entryDy=0;entryPerimeter=0;" edge="1" parent="co_M-Fp7z7ZcmXPhSosA-5" source="co_M-Fp7z7ZcmXPhSosA-38" target="co_M-Fp7z7ZcmXPhSosA-36">
          <mxGeometry relative="1" as="geometry" />
        </mxCell>
        <mxCell id="co_M-Fp7z7ZcmXPhSosA-74" value="überreden&lt;br&gt;führen&lt;br&gt;betören etc" style="edgeLabel;html=1;align=center;verticalAlign=middle;resizable=0;points=[];" vertex="1" connectable="0" parent="co_M-Fp7z7ZcmXPhSosA-39">
          <mxGeometry x="-0.0939" y="1" relative="1" as="geometry">
            <mxPoint as="offset" />
          </mxGeometry>
        </mxCell>
        <mxCell id="co_M-Fp7z7ZcmXPhSosA-59" value="&lt;div&gt;Hinweis:&lt;/div&gt;&lt;div&gt;Polizeiinspektor wird&lt;br&gt;den Diebstahl als Kriegs-&lt;br&gt;erklärung betrachten.&lt;br&gt;&lt;/div&gt;" style="ellipse;shape=cloud;whiteSpace=wrap;html=1;" vertex="1" parent="co_M-Fp7z7ZcmXPhSosA-5">
          <mxGeometry x="490" y="130" width="210" height="130" as="geometry" />
        </mxCell>
        <mxCell id="co_M-Fp7z7ZcmXPhSosA-60" style="rounded=0;orthogonalLoop=1;jettySize=auto;html=1;entryX=0.16;entryY=0.55;entryDx=0;entryDy=0;entryPerimeter=0;" edge="1" parent="co_M-Fp7z7ZcmXPhSosA-5" source="co_M-Fp7z7ZcmXPhSosA-38" target="co_M-Fp7z7ZcmXPhSosA-59">
          <mxGeometry relative="1" as="geometry" />
        </mxCell>
        <mxCell id="co_M-Fp7z7ZcmXPhSosA-72" style="rounded=0;orthogonalLoop=1;jettySize=auto;html=1;entryX=0;entryY=0.5;entryDx=0;entryDy=0;" edge="1" parent="co_M-Fp7z7ZcmXPhSosA-5" source="co_M-Fp7z7ZcmXPhSosA-69" target="co_M-Fp7z7ZcmXPhSosA-71">
          <mxGeometry relative="1" as="geometry" />
        </mxCell>
        <mxCell id="co_M-Fp7z7ZcmXPhSosA-73" value="bietet&lt;br&gt;Spielern" style="edgeLabel;html=1;align=center;verticalAlign=middle;resizable=0;points=[];" vertex="1" connectable="0" parent="co_M-Fp7z7ZcmXPhSosA-72">
          <mxGeometry x="-0.2098" y="-1" relative="1" as="geometry">
            <mxPoint as="offset" />
          </mxGeometry>
        </mxCell>
        <mxCell id="co_M-Fp7z7ZcmXPhSosA-69" value="Cornelius" style="shape=umlActor;verticalLabelPosition=bottom;verticalAlign=top;html=1;outlineConnect=0;" vertex="1" parent="co_M-Fp7z7ZcmXPhSosA-5">
          <mxGeometry x="310" y="368.75" width="30" height="60" as="geometry" />
        </mxCell>
        <mxCell id="co_M-Fp7z7ZcmXPhSosA-71" value="Dampfballon-&lt;br&gt;fahrt" style="rhombus;whiteSpace=wrap;html=1;" vertex="1" parent="co_M-Fp7z7ZcmXPhSosA-5">
          <mxGeometry x="440" y="360" width="120" height="120" as="geometry" />
        </mxCell>
        <mxCell id="co_M-Fp7z7ZcmXPhSosA-75" value="Hinweis:&lt;br&gt;Higgins fehlt..." style="ellipse;shape=cloud;whiteSpace=wrap;html=1;" vertex="1" parent="co_M-Fp7z7ZcmXPhSosA-5">
          <mxGeometry x="380" y="5.83" width="130" height="80" as="geometry" />
        </mxCell>
        <mxCell id="co_M-Fp7z7ZcmXPhSosA-76" style="rounded=0;orthogonalLoop=1;jettySize=auto;html=1;entryX=0.88;entryY=0.25;entryDx=0;entryDy=0;entryPerimeter=0;exitX=0.5;exitY=0;exitDx=0;exitDy=0;exitPerimeter=0;" edge="1" parent="co_M-Fp7z7ZcmXPhSosA-5" source="co_M-Fp7z7ZcmXPhSosA-24" target="co_M-Fp7z7ZcmXPhSosA-75">
          <mxGeometry relative="1" as="geometry" />
        </mxCell>
        <mxCell id="co_M-Fp7z7ZcmXPhSosA-6" value="" style="group" vertex="1" connectable="0" parent="1">
          <mxGeometry x="1220" y="110" width="1120" height="820" as="geometry" />
        </mxCell>
        <mxCell id="co_M-Fp7z7ZcmXPhSosA-7" value="" style="group" vertex="1" connectable="0" parent="co_M-Fp7z7ZcmXPhSosA-6">
          <mxGeometry x="-20.000000000000004" y="23.332222222222217" width="1120" height="546.6677777777777" as="geometry" />
        </mxCell>
        <mxCell id="co_M-Fp7z7ZcmXPhSosA-14" value="" style="group" vertex="1" connectable="0" parent="co_M-Fp7z7ZcmXPhSosA-7">
          <mxGeometry width="1120" height="546.6677777777777" as="geometry" />
        </mxCell>
        <mxCell id="co_M-Fp7z7ZcmXPhSosA-8" value="" style="rounded=1;whiteSpace=wrap;html=1;" vertex="1" parent="co_M-Fp7z7ZcmXPhSosA-14">
          <mxGeometry width="1120" height="546.6666666666665" as="geometry" />
        </mxCell>
        <mxCell id="co_M-Fp7z7ZcmXPhSosA-9" value="Akt 2: Suche nach Informationen zu Unterstadt" style="text;html=1;strokeColor=none;fillColor=none;align=center;verticalAlign=middle;whiteSpace=wrap;rounded=0;" vertex="1" parent="co_M-Fp7z7ZcmXPhSosA-14">
          <mxGeometry x="40.00000000000001" y="36.44444444444443" width="220" height="54.66666666666664" as="geometry" />
        </mxCell>
        <mxCell id="co_M-Fp7z7ZcmXPhSosA-63" value="" style="endArrow=none;html=1;rounded=0;entryX=0.25;entryY=0;entryDx=0;entryDy=0;exitX=0.25;exitY=1;exitDx=0;exitDy=0;" edge="1" parent="co_M-Fp7z7ZcmXPhSosA-14" source="co_M-Fp7z7ZcmXPhSosA-8" target="co_M-Fp7z7ZcmXPhSosA-8">
          <mxGeometry width="50" height="50" relative="1" as="geometry">
            <mxPoint x="20" y="371.77777777777777" as="sourcePoint" />
            <mxPoint x="70" y="321.77777777777777" as="targetPoint" />
          </mxGeometry>
        </mxCell>
        <mxCell id="co_M-Fp7z7ZcmXPhSosA-64" value="&lt;div align=&quot;left&quot;&gt;&lt;ul&gt;&lt;li&gt;Spieler müssen herausfinden wo sich die Unterstadt befindet.&lt;/li&gt;&lt;li&gt;&lt;font color=&quot;#66ff66&quot;&gt;Spieler treffen in dem goldenen Hasenfuß auf Eskel, welcher ihnen im für die Wimpel des königlichen Dampfballons helfen kann &lt;br&gt;&lt;br&gt;-&amp;gt; Schmuggelt die spieler nach Unterstadt&lt;/font&gt;&lt;/li&gt;&lt;li&gt;&lt;font color=&quot;#99ccff&quot;&gt;Spieler treffen auf Jagadishwor, welcher ihnen für den Almanach des königlichen Aeronautikers helfen kann&lt;br&gt;&lt;br&gt;-&amp;gt; Gibt den Spielern eine Karte der Unterstadt&lt;br&gt;&lt;/font&gt;&lt;/li&gt;&lt;li&gt;Spieler treffen bei Scotland Yard den Polizeiinspekteur, welcher ihnen für das überbringen eines Briefes an einen Agenten auf dem königliche Dampfschiff hilft&lt;br&gt;&lt;br&gt;-&amp;gt; Eskorte der Minutemen durch die Katakomben nach Unterstadt&lt;br&gt;&lt;/li&gt;&lt;/ul&gt;&lt;/div&gt;" style="text;html=1;strokeColor=none;fillColor=none;align=left;verticalAlign=middle;whiteSpace=wrap;rounded=0;" vertex="1" parent="co_M-Fp7z7ZcmXPhSosA-14">
          <mxGeometry x="10" y="56.66777777777776" width="260" height="490" as="geometry" />
        </mxCell>
        <mxCell id="co_M-Fp7z7ZcmXPhSosA-65" value="Eskel" style="shape=umlActor;verticalLabelPosition=bottom;verticalAlign=top;html=1;outlineConnect=0;" vertex="1" parent="co_M-Fp7z7ZcmXPhSosA-14">
          <mxGeometry x="370" y="56.66777777777776" width="30" height="60" as="geometry" />
        </mxCell>
        <mxCell id="co_M-Fp7z7ZcmXPhSosA-66" value="Jagadishwor" style="shape=umlActor;verticalLabelPosition=bottom;verticalAlign=top;html=1;outlineConnect=0;" vertex="1" parent="co_M-Fp7z7ZcmXPhSosA-14">
          <mxGeometry x="370" y="211.77777777777777" width="30" height="60" as="geometry" />
        </mxCell>
        <mxCell id="co_M-Fp7z7ZcmXPhSosA-68" value="&lt;div&gt;Polizeiinspekteur&lt;/div&gt;&lt;div&gt;&lt;br&gt;&lt;/div&gt;" style="shape=umlActor;verticalLabelPosition=bottom;verticalAlign=top;html=1;outlineConnect=0;" vertex="1" parent="co_M-Fp7z7ZcmXPhSosA-14">
          <mxGeometry x="370" y="351.77777777777777" width="30" height="60" as="geometry" />
        </mxCell>
        <mxCell id="co_M-Fp7z7ZcmXPhSosA-77" value="Dampfschiff&lt;br&gt;infiltrieren" style="ellipse;shape=cloud;whiteSpace=wrap;html=1;" vertex="1" parent="co_M-Fp7z7ZcmXPhSosA-14">
          <mxGeometry x="590" y="176.66777777777776" width="120" height="80" as="geometry" />
        </mxCell>
        <mxCell id="co_M-Fp7z7ZcmXPhSosA-78" style="rounded=0;orthogonalLoop=1;jettySize=auto;html=1;entryX=0.123;entryY=0.319;entryDx=0;entryDy=0;entryPerimeter=0;" edge="1" parent="co_M-Fp7z7ZcmXPhSosA-14" source="co_M-Fp7z7ZcmXPhSosA-65" target="co_M-Fp7z7ZcmXPhSosA-77">
          <mxGeometry relative="1" as="geometry" />
        </mxCell>
        <mxCell id="co_M-Fp7z7ZcmXPhSosA-83" value="Wimpel des &lt;br&gt;königlichen&lt;br&gt;Dampfballons" style="edgeLabel;html=1;align=center;verticalAlign=middle;resizable=0;points=[];" vertex="1" connectable="0" parent="co_M-Fp7z7ZcmXPhSosA-78">
          <mxGeometry x="-0.1243" relative="1" as="geometry">
            <mxPoint y="-1" as="offset" />
          </mxGeometry>
        </mxCell>
        <mxCell id="co_M-Fp7z7ZcmXPhSosA-81" style="rounded=0;orthogonalLoop=1;jettySize=auto;html=1;entryX=0.086;entryY=0.513;entryDx=0;entryDy=0;entryPerimeter=0;" edge="1" parent="co_M-Fp7z7ZcmXPhSosA-14" source="co_M-Fp7z7ZcmXPhSosA-66" target="co_M-Fp7z7ZcmXPhSosA-77">
          <mxGeometry relative="1" as="geometry" />
        </mxCell>
        <mxCell id="co_M-Fp7z7ZcmXPhSosA-84" value="Almanach des&lt;br&gt;königlichen&lt;br&gt;Aeronautikers" style="edgeLabel;html=1;align=center;verticalAlign=middle;resizable=0;points=[];" vertex="1" connectable="0" parent="co_M-Fp7z7ZcmXPhSosA-81">
          <mxGeometry x="-0.2615" relative="1" as="geometry">
            <mxPoint as="offset" />
          </mxGeometry>
        </mxCell>
        <mxCell id="co_M-Fp7z7ZcmXPhSosA-82" style="rounded=0;orthogonalLoop=1;jettySize=auto;html=1;entryX=0.13;entryY=0.77;entryDx=0;entryDy=0;entryPerimeter=0;" edge="1" parent="co_M-Fp7z7ZcmXPhSosA-14" target="co_M-Fp7z7ZcmXPhSosA-77">
          <mxGeometry relative="1" as="geometry">
            <mxPoint x="410" y="376.6677777777778" as="sourcePoint" />
          </mxGeometry>
        </mxCell>
        <mxCell id="co_M-Fp7z7ZcmXPhSosA-85" value="Überbringen &lt;br&gt;des Briefes&lt;br&gt;an Agenten" style="edgeLabel;html=1;align=center;verticalAlign=middle;resizable=0;points=[];" vertex="1" connectable="0" parent="co_M-Fp7z7ZcmXPhSosA-82">
          <mxGeometry x="-0.1913" y="-3" relative="1" as="geometry">
            <mxPoint as="offset" />
          </mxGeometry>
        </mxCell>
        <mxCell id="co_M-Fp7z7ZcmXPhSosA-10" value="" style="group" vertex="1" connectable="0" parent="1">
          <mxGeometry x="160" y="700" width="560" height="450" as="geometry" />
        </mxCell>
        <mxCell id="co_M-Fp7z7ZcmXPhSosA-11" value="" style="group" vertex="1" connectable="0" parent="co_M-Fp7z7ZcmXPhSosA-10">
          <mxGeometry x="-10" y="10" width="560" height="300" as="geometry" />
        </mxCell>
        <mxCell id="co_M-Fp7z7ZcmXPhSosA-12" value="" style="rounded=1;whiteSpace=wrap;html=1;" vertex="1" parent="co_M-Fp7z7ZcmXPhSosA-11">
          <mxGeometry width="560" height="300" as="geometry" />
        </mxCell>
        <mxCell id="co_M-Fp7z7ZcmXPhSosA-13" value="Akt 3: Reise nach Unterstadt" style="text;html=1;strokeColor=none;fillColor=none;align=center;verticalAlign=middle;whiteSpace=wrap;rounded=0;" vertex="1" parent="co_M-Fp7z7ZcmXPhSosA-11">
          <mxGeometry x="10" y="10" width="90" height="30" as="geometry" />
        </mxCell>
        <mxCell id="co_M-Fp7z7ZcmXPhSosA-15" value="" style="group" vertex="1" connectable="0" parent="1">
          <mxGeometry x="1200" y="720" width="560" height="300" as="geometry" />
        </mxCell>
        <mxCell id="co_M-Fp7z7ZcmXPhSosA-16" value="" style="rounded=1;whiteSpace=wrap;html=1;" vertex="1" parent="co_M-Fp7z7ZcmXPhSosA-15">
          <mxGeometry width="560" height="300" as="geometry" />
        </mxCell>
        <mxCell id="co_M-Fp7z7ZcmXPhSosA-17" value="Akt 4: Konflikt" style="text;html=1;strokeColor=none;fillColor=none;align=center;verticalAlign=middle;whiteSpace=wrap;rounded=0;" vertex="1" parent="co_M-Fp7z7ZcmXPhSosA-15">
          <mxGeometry x="10" y="10" width="90" height="30" as="geometry" />
        </mxCell>
      </root>
    </mxGraphModel>
  </diagram>
</mxfile>
